<svg xmlns="http://www.w3.org/2000/svg" height="1200" width="1600" version="1.1" xmlns:xlink="http://www.w3.org/1999/xlink" xmlns:svgjs="http://svgjs.com/svgjs"><rect fill="#effaff" width="1600" height="1200"></rect><g><path d="M1112.08 280.76H511.2V605.89H1112.08V280.76Z" fill="#3d84a8" stroke="#333333" stroke-width="2" stroke-linecap="round" stroke-linejoin="round" opacity="1"></path></g><g><path d="M811.99 534.58L701.3 500.29V367.81L721.8 367.25 811.99 390.36 902.17 367.25 922.11 367.81V500.29L811.99 534.58Z" fill="#46cdcf" stroke="#333333" stroke-width="2" stroke-linecap="round" stroke-linejoin="round" opacity="1"></path><path d="M701.3 482.96L811.99 517.25V390.36L721.8 367.25 701.3 367.81V482.96Z" fill="#46cdcf" stroke="#333333" stroke-width="2" stroke-linecap="round" stroke-linejoin="round" opacity="1"></path><path d="M811.99 534.58V389.98" stroke="#333333" stroke-width="2" stroke-linecap="round" stroke-linejoin="round" opacity="1" fill="none"></path><path d="M811.99 517.25C785.34 461.72 720.31 488.92 720.31 488.92L721.8 358.68C721.8 358.68 785.34 334.64 811.99 390.17V517.25Z" fill="#abedd8" stroke="#333333" stroke-width="2" stroke-linecap="round" stroke-linejoin="round" opacity="1"></path><path d="M749.19 397.99C749.19 397.99 776.77 391.29 790.56 414.02" stroke="#333333" stroke-width="2" stroke-linecap="round" stroke-linejoin="round" opacity="1" fill="none"></path><path d="M749.19 417.93C749.19 417.93 776.77 411.22 790.56 433.96" stroke="#333333" stroke-width="2" stroke-linecap="round" stroke-linejoin="round" opacity="1" fill="none"></path><path d="M749.19 437.68C749.19 437.68 776.77 430.98 790.56 453.71" stroke="#333333" stroke-width="2" stroke-linecap="round" stroke-linejoin="round" opacity="1" fill="none"></path><path d="M811.99 517.25L922.11 482.96V367.81L902.17 367.25 811.99 390.36V517.25Z" fill="#46cdcf" stroke="#333333" stroke-width="2" stroke-linecap="round" stroke-linejoin="round" opacity="1"></path><path d="M811.99 517.25C838.63 461.72 904.59 488.55 904.59 488.55L902.17 358.87C902.17 358.87 838.63 334.83 811.99 390.36V517.25Z" fill="#abedd8" stroke="#333333" stroke-width="2" stroke-linecap="round" stroke-linejoin="round" opacity="1"></path><path d="M874.59 397.99C874.59 397.99 847.02 391.29 833.23 414.02" stroke="#333333" stroke-width="2" stroke-linecap="round" stroke-linejoin="round" opacity="1" fill="none"></path><path d="M874.59 417.93C874.59 417.93 847.02 411.22 833.23 433.96" stroke="#333333" stroke-width="2" stroke-linecap="round" stroke-linejoin="round" opacity="1" fill="none"></path><path d="M874.59 437.68C874.59 437.68 847.02 430.98 833.23 453.71" stroke="#333333" stroke-width="2" stroke-linecap="round" stroke-linejoin="round" opacity="1" fill="none"></path></g><g><path d="M1039.25 712.6H929.31L919.35 727.3V976.31L1047.88 976.31 1047.88 727.3 1039.25 712.6Z" fill="#49476e" stroke="#333333" stroke-width="2" stroke-linecap="round" stroke-linejoin="round" opacity="1"></path><path d="M919.35 569.17H1040.29 1077.38L1137.9 505.52 1177.36 542.99 1113.05 610.82C1105.27 619.07 1094.36 623.72 1083.17 623.72H1047.88V727.3H919.35V702.26C889.28 702.26 864.9 677.88 864.9 647.81V623.72C864.9 593.65 889.28 569.17 919.35 569.17Z" fill="#ffffff" stroke="#333333" stroke-width="2" stroke-linecap="round" stroke-linejoin="round" opacity="1"></path><path d="M975.12 589C954.64 589 938.03 572.39 938.03 551.91 938.03 531.43 954.64 514.82 975.12 514.82 995.6 514.82 1012.21 531.43 1012.21 551.91 1012.21 572.39 995.6 589 975.12 589Z" fill="#ffffff" stroke="#333333" stroke-width="2" stroke-linecap="round" stroke-linejoin="round" opacity="1"></path><path d="M975.12 514.72C995.61 514.72 1012.21 531.42 1012.21 551.81 1012.21 554.94 1011.93 557.98 1011.07 560.92 1002.35 560.26 995.33 552.95 995.33 544.04V533.51H942.68C949.13 522.31 961.18 514.72 975.12 514.72Z" fill="#49476e" stroke="#333333" stroke-width="2" stroke-linecap="round" stroke-linejoin="round" opacity="1"></path><path d="M958.43 545.46V557.51" stroke="#333333" stroke-width="2" stroke-linecap="round" stroke-linejoin="round" opacity="1" fill="none"></path><path d="M958.43 557.51C958.43 560.45 960.7 562.82 963.74 562.82 966.78 562.82 969.05 560.54 969.05 557.51" stroke="#333333" stroke-width="2" stroke-linecap="round" stroke-linejoin="round" opacity="1" fill="none"></path><path d="M902.94 623.62H981.86L1017.15 712.6H938.32L902.94 623.62Z" fill="#abedd8" stroke="#333333" stroke-width="2" stroke-linecap="round" stroke-linejoin="round" opacity="1"></path><path d="M907.96 647.91H1017.34C1017.34 677.98 992.96 702.35 962.89 702.35H919.54" fill="#ffffff" opacity="1" stroke-width="2" stroke="none"></path><path d="M907.96 647.91H1017.34C1017.34 677.98 992.96 702.35 962.89 702.35H919.54" stroke="#333333" stroke-width="2" stroke-linecap="round" stroke-linejoin="round" opacity="1" fill="none"></path><path d="M966.97 795.13V779.95" stroke="#333333" stroke-width="2" stroke-linecap="round" stroke-linejoin="round" opacity="1" fill="none"></path><path d="M966.97 976.31V805.18" stroke="#333333" stroke-width="2" stroke-linecap="round" stroke-linejoin="round" opacity="1" fill="none"></path></g><g><path d="M711.44 731.19L654.4 716.41 585.23 730.86V975.9H711.44L711.44 731.19Z" fill="#49476e" stroke="#333333" stroke-width="2" stroke-linecap="round" stroke-linejoin="round" opacity="1"></path><path d="M565.92 619.09C565.92 587.98 591.18 562.83 622.19 562.83H678.67C709.13 562.83 733.95 587.54 733.95 617.99V632.78 641.27 668.74C733.95 681.1 723.91 691.14 711.55 691.14V732.96H585.34V696.88C573.53 687.72 566.03 673.38 566.03 657.27V650.54 619.09H565.92Z" fill="#ffffff" stroke="#333333" stroke-width="2" stroke-linecap="round" stroke-linejoin="round" opacity="1"></path><path d="M679.67 595.26V605.86C690.37 605.86 698.98 597.25 698.98 586.55V576.95C680.88 576.95 679.67 585 679.67 595.26Z" fill="#49476e" stroke="#333333" stroke-width="2" stroke-linecap="round" stroke-linejoin="round" opacity="1"></path><path d="M698.98 545.17C711.55 571.43 689.93 601.77 660.47 597.8 642.38 595.37 629.91 580.48 628.58 564.04 628.03 557.86 644.58 545.17 647.67 545.17 647.67 545.17 652.09 537.67 654.29 536.02 659.48 532.04 674.81 529.51 683.53 532.38 687.94 533.7 698.98 545.17 698.98 545.17Z" fill="#ffffff" stroke="#333333" stroke-width="2" stroke-linecap="round" stroke-linejoin="round" opacity="1"></path><path d="M684.63 563.27V570.33" stroke="#333333" stroke-width="2" stroke-linecap="round" opacity="1" fill="none"></path><path d="M674.7 570.33C674.7 573.09 676.91 575.29 679.67 575.29 682.43 575.29 684.63 573.09 684.63 570.33" stroke="#333333" stroke-width="2" stroke-linecap="round" opacity="1" fill="none"></path><path d="M613.14 577.83V564.04C613.14 553.56 621.63 545.17 632.01 545.17 637.96 532.71 650.65 524.1 665.43 524.1 680.22 524.1 692.91 532.71 698.86 545.17H687.72C682.32 545.17 678.01 540.76 678.01 535.46 678.01 540.87 673.6 545.17 668.3 545.17H653.96V574.19C653.96 586.11 644.36 595.82 632.56 596.04V601.55C632.56 612.25 623.95 620.86 613.25 620.86H587.1V603.98C586.99 589.53 598.69 577.83 613.14 577.83Z" fill="#49476e" stroke="#333333" stroke-width="2" stroke-linecap="round" stroke-linejoin="round" opacity="1"></path><path d="M685.96 641.38H699.2" stroke="#333333" stroke-width="2" stroke-linecap="round" stroke-linejoin="round" opacity="1" fill="none"></path><path d="M604.64 641.38H628.7" stroke="#333333" stroke-width="2" stroke-linecap="round" stroke-linejoin="round" opacity="1" fill="none"></path><path d="M711.44 691.14H661.9" stroke="#333333" stroke-width="2" stroke-linecap="round" stroke-linejoin="round" opacity="1" fill="none"></path><path d="M663.89 975.9L663.89 796.73" stroke="#333333" stroke-width="2" stroke-linecap="round" stroke-linejoin="round" opacity="1" fill="none"></path><path d="M663.89 783.71V768.59" stroke="#333333" stroke-width="2" stroke-linecap="round" stroke-linejoin="round" opacity="1" fill="none"></path><path d="M585.23 696.88C593.72 703.5 604.42 707.47 616.12 707.47H629.14C645.13 707.47 659.7 698.2 666.43 683.64L696.77 617.77 650.32 595.26 618.66 663.45C618.66 650.1 607.84 639.29 594.49 639.29" stroke="#333333" stroke-width="2" stroke-linecap="round" stroke-linejoin="round" opacity="1" fill="none"></path></g><g><path d="M437 391.38H384.02V349.68C384.02 335.07 395.9 323.19 410.51 323.19 425.12 323.19 437 335.07 437 349.68V391.38Z" fill="#78c7e0" stroke="#333333" stroke-width="2" stroke-linecap="round" stroke-linejoin="round" opacity="1"></path><path d="M410.51 323.28V232.53" stroke="#333333" stroke-width="2" stroke-linecap="round" stroke-linejoin="round" opacity="1" fill="none"></path><path d="M338.39 359.76V391.47H285.41V349.68C285.41 335.07 297.29 323.19 311.9 323.19 326.51 323.19 338.39 335.07 338.39 349.68" fill="#78c7e0" opacity="1" stroke-width="2" stroke="none"></path><path d="M338.39 359.76V391.47H285.41V349.68C285.41 335.07 297.29 323.19 311.9 323.19 326.51 323.19 338.39 335.07 338.39 349.68" stroke="#333333" stroke-width="2" stroke-linecap="round" stroke-linejoin="round" opacity="1" fill="none"></path><path d="M311.9 323.28V232.53" stroke="#333333" stroke-width="2" stroke-linecap="round" stroke-linejoin="round" opacity="1" fill="none"></path><path d="M239.87 391.38H186.89V349.68C186.89 335.07 198.76 323.19 213.38 323.19 227.99 323.19 239.87 335.07 239.87 349.68V391.38Z" fill="#78c7e0" stroke="#333333" stroke-width="2" stroke-linecap="round" stroke-linejoin="round" opacity="1"></path><path d="M213.38 253.8V232.53" stroke="#333333" stroke-width="2" stroke-linecap="round" stroke-linejoin="round" opacity="1" fill="none"></path><path d="M213.38 323.28V260.21" stroke="#333333" stroke-width="2" stroke-linecap="round" stroke-linejoin="round" opacity="1" fill="none"></path></g><g><path d="M81.71 976.55H459.82" stroke="#333333" stroke-width="2" stroke-linecap="round" stroke-linejoin="round" opacity="1" fill="none"></path><path d="M1149.88 976.55H1208.73 1227.47 1518.42" stroke="#333333" stroke-width="2" stroke-linecap="round" stroke-linejoin="round" opacity="1" fill="none"></path><path d="M1099.13 976.55H1135" stroke="#333333" stroke-width="2" stroke-linecap="round" stroke-linejoin="round" opacity="1" fill="none"></path><path d="M486.66 976.55H1083.98" stroke="#333333" stroke-width="2" stroke-linecap="round" stroke-linejoin="round" opacity="1" fill="none"></path></g><g><path d="M594.59 702.49H649.01V721.43H594.59V702.49Z" fill="#78c7e0" stroke="#333333" stroke-width="2" stroke-linecap="round" stroke-linejoin="round" opacity="1"></path><path d="M621.73 702.49V630.21C621.73 623.49 627.11 618.12 633.82 618.12" stroke="#333333" stroke-width="2" stroke-linecap="round" stroke-linejoin="round" opacity="1" fill="none"></path><path d="M638.12 622.28C635.74 622.28 633.82 620.36 633.82 617.98 633.82 615.61 635.74 613.68 638.12 613.68 640.5 613.68 642.42 615.61 642.42 617.98 642.42 620.36 640.5 622.28 638.12 622.28Z" fill="#00a0d3" stroke="#333333" stroke-width="2" stroke-linecap="round" stroke-linejoin="round" opacity="1"></path><path d="M552.41 721.43H752.19V976.43H552.41L552.41 721.43Z" fill="#46cdcf" stroke="#333333" stroke-width="2" stroke-linecap="round" stroke-linejoin="round" opacity="1"></path><path d="M770.06 721.43H534.54" stroke="#333333" stroke-width="2" stroke-linecap="round" stroke-linejoin="round" opacity="1" fill="none"></path><path d="M598.76 767.79H705.84V831.47H598.76V767.79Z" fill="#78c7e0" stroke="#333333" stroke-width="2" stroke-linecap="round" stroke-linejoin="round" opacity="1"></path></g><g><path d="M1438.92 393.34H1385.66V351.42C1385.66 336.73 1397.6 324.79 1412.29 324.79 1426.98 324.79 1438.92 336.73 1438.92 351.42V393.34Z" fill="#78c7e0" stroke="#333333" stroke-width="2" stroke-linecap="round" stroke-linejoin="round" opacity="1"></path><path d="M1412.29 324.88V233.65" stroke="#333333" stroke-width="2" stroke-linecap="round" stroke-linejoin="round" opacity="1" fill="none"></path><path d="M1339.79 361.56V393.43H1286.53V351.42C1286.53 336.73 1298.47 324.79 1313.16 324.79 1327.85 324.79 1339.79 336.73 1339.79 351.42" fill="#78c7e0" opacity="1" stroke-width="2" stroke="none"></path><path d="M1339.79 361.56V393.43H1286.53V351.42C1286.53 336.73 1298.47 324.79 1313.16 324.79 1327.85 324.79 1339.79 336.73 1339.79 351.42" stroke="#333333" stroke-width="2" stroke-linecap="round" stroke-linejoin="round" opacity="1" fill="none"></path><path d="M1313.16 324.88V233.65" stroke="#333333" stroke-width="2" stroke-linecap="round" stroke-linejoin="round" opacity="1" fill="none"></path><path d="M1240.75 393.34H1187.49V351.42C1187.49 336.73 1199.43 324.79 1214.12 324.79 1228.81 324.79 1240.75 336.73 1240.75 351.42V393.34Z" fill="#78c7e0" stroke="#333333" stroke-width="2" stroke-linecap="round" stroke-linejoin="round" opacity="1"></path><path d="M1214.12 255.04V233.65" stroke="#333333" stroke-width="2" stroke-linecap="round" stroke-linejoin="round" opacity="1" fill="none"></path><path d="M1214.12 324.88V261.49" stroke="#333333" stroke-width="2" stroke-linecap="round" stroke-linejoin="round" opacity="1" fill="none"></path></g><g><path d="M1424.42 806.81H1291.81V796.95C1291.81 787.45 1299.48 779.78 1308.98 779.78H1407.25C1416.75 779.78 1424.42 787.45 1424.42 796.95V806.81Z" fill="#3d84a8" stroke="#333333" stroke-width="2" stroke-linecap="round" stroke-linejoin="round" opacity="1"></path><path d="M1357.94 806.81V976.93" stroke="#333333" stroke-width="2" stroke-linecap="round" stroke-linejoin="round" opacity="1" fill="none"></path><path d="M1310.32 976.93C1310.32 950.63 1331.75 929.32 1358.06 929.32 1384.36 929.32 1405.67 950.75 1405.67 976.93" stroke="#333333" stroke-width="2" stroke-linecap="round" stroke-linejoin="round" opacity="1" fill="none"></path></g><g><path d="M244.37 538.98H276.22L261.03 594.61 244.37 538.98Z" fill="#3d84a8" stroke="#333333" stroke-width="2" stroke-linecap="round" stroke-linejoin="round" opacity="1"></path><path d="M465.65 523.26H303.35V594.61H465.65V523.26Z" fill="#3d84a8" stroke="#333333" stroke-width="2" stroke-linecap="round" stroke-linejoin="round" opacity="1"></path><path d="M329.02 523.26H269.23C264.8 523.26 261.17 526.89 261.17 531.33V594.61H337.08V531.33C337.08 526.89 333.45 523.26 329.02 523.26Z" fill="#3d84a8" stroke="#333333" stroke-width="2" stroke-linecap="round" stroke-linejoin="round" opacity="1"></path><path d="M363.68 651.44H337.08V730.03H363.68V651.44Z" fill="#3d84a8" stroke="#333333" stroke-width="2" stroke-linecap="round" stroke-linejoin="round" opacity="1"></path><path d="M385.85 661.78H315.04L311.01 606.97H389.88L385.85 661.78Z" fill="#3d84a8" stroke="#333333" stroke-width="2" stroke-linecap="round" stroke-linejoin="round" opacity="1"></path><path d="M426.42 594.61H274.33V611.13H426.42V594.61Z" fill="#78c7e0" stroke="#333333" stroke-width="2" stroke-linecap="round" stroke-linejoin="round" opacity="1"></path><path d="M510.39 596.49H489.83C482.85 596.49 477.21 590.84 477.21 583.86V535.89C477.21 528.91 482.85 523.26 489.83 523.26H510.39C517.38 523.26 523.02 528.91 523.02 535.89V583.99C523.02 590.84 517.38 596.49 510.39 596.49Z" fill="#78c7e0" stroke="#333333" stroke-width="2" stroke-linecap="round" stroke-linejoin="round" opacity="1"></path><path d="M336.94 538.98H261.03V582.92H336.94V538.98Z" fill="#ffffff" stroke="#333333" stroke-width="2" stroke-linecap="round" stroke-linejoin="round" opacity="1"></path><path d="M320.28 538.98H337.08V594.61L320.28 538.98Z" fill="#3d84a8" stroke="#333333" stroke-width="2" stroke-linecap="round" stroke-linejoin="round" opacity="1"></path><path d="M265.74 588.83H272.59" stroke="#333333" stroke-width="2" stroke-linecap="round" stroke-linejoin="round" opacity="1" fill="none"></path><path d="M278.36 588.83H285.22" stroke="#333333" stroke-width="2" stroke-linecap="round" stroke-linejoin="round" opacity="1" fill="none"></path><path d="M440.93 553.9H401.97V563.97H440.93V553.9Z" fill="#ffffff" stroke="#333333" stroke-width="2" stroke-linecap="round" stroke-linejoin="round" opacity="1"></path><path d="M486.21 535.22H465.79V582.78H486.21V535.22Z" fill="#3d84a8" stroke="#333333" stroke-width="2" stroke-linecap="round" stroke-linejoin="round" opacity="1"></path><path d="M486.21 535.22H477.34V582.78H486.21C499.37 582.78 509.99 572.03 509.99 559 509.99 545.84 499.24 535.22 486.21 535.22Z" fill="#3d84a8" stroke="#333333" stroke-width="2" stroke-linecap="round" stroke-linejoin="round" opacity="1"></path><path d="M429.78 666.75L377.52 638.81H353.33" stroke="#333333" stroke-width="2" stroke-linecap="round" stroke-linejoin="round" opacity="1" fill="none"></path><path d="M432 663.08L428.05 670.42 464.24 689.93 468.19 682.59 432 663.08Z" fill="#3d84a8" stroke="#333333" stroke-width="2" stroke-linecap="round" stroke-linejoin="round" opacity="1"></path><path d="M367.17 719.82H333.58V753.54H367.17V719.82Z" fill="#78c7e0" stroke="#333333" stroke-width="2" stroke-linecap="round" stroke-linejoin="round" opacity="1"></path><path d="M287.1 738.5H413.66" stroke="#333333" stroke-width="2" stroke-linecap="round" stroke-linejoin="round" opacity="1" fill="none"></path><path d="M397.13 738.5H303.62V893.27H397.13V738.5Z" fill="#3d84a8" stroke="#333333" stroke-width="2" stroke-linecap="round" stroke-linejoin="round" opacity="1"></path><path d="M420.24 956.82H280.38V898.37C280.38 888.43 288.44 880.37 298.38 880.37H402.37C412.31 880.37 420.37 888.43 420.37 898.37L420.24 956.82Z" fill="#3d84a8" stroke="#333333" stroke-width="2" stroke-linecap="round" stroke-linejoin="round" opacity="1"></path><path d="M420.24 976.16C430.92 976.16 439.59 967.5 439.59 956.82 439.59 946.14 430.92 937.47 420.24 937.47 409.56 937.47 400.89 946.14 400.89 956.82 400.89 967.5 409.56 976.16 420.24 976.16Z" fill="#ffffff" stroke="#333333" stroke-width="2" stroke-linecap="round" stroke-linejoin="round" opacity="1"></path><path d="M280.38 976.16C291.06 976.16 299.73 967.5 299.73 956.82 299.73 946.14 291.06 937.47 280.38 937.47 269.7 937.47 261.03 946.14 261.03 956.82 261.03 967.5 269.7 976.16 280.38 976.16Z" fill="#ffffff" stroke="#333333" stroke-width="2" stroke-linecap="round" stroke-linejoin="round" opacity="1"></path></g><g><path d="M1243.43 716.72H1167.25V976.66H1243.43 1319.74V716.72H1243.43Z" fill="#49476e" stroke="#333333" stroke-width="2" stroke-linecap="round" stroke-linejoin="round" opacity="1"></path><path d="M1279.38 683.93H1323.77C1333.74 683.93 1341.93 675.73 1341.93 665.77V550.99H1261.34V665.77C1261.21 675.86 1269.41 683.93 1279.38 683.93Z" fill="#3d84a8" stroke="#333333" stroke-width="2" stroke-linecap="round" stroke-linejoin="round" opacity="1"></path><path d="M1347.1 557.05H1256.17V540.02C1256.17 529.8 1264.49 521.35 1274.96 521.35H1328.69C1338.91 521.35 1347.36 529.68 1347.36 540.02V557.05H1347.1Z" fill="#78c7e0" stroke="#333333" stroke-width="2" stroke-linecap="round" stroke-linejoin="round" opacity="1"></path><path d="M1167.25 699.31V586.94C1167.25 564.36 1185.41 546.33 1207.86 546.33H1279C1301.45 546.33 1319.61 564.49 1319.61 586.94V725.42H1167.25V710.54" fill="#ffffff" opacity="1" stroke-width="2" stroke="none"></path><path d="M1167.25 699.31V586.94C1167.25 564.36 1185.41 546.33 1207.86 546.33H1279C1301.45 546.33 1319.61 564.49 1319.61 586.94V725.42H1167.25V710.54" stroke="#333333" stroke-width="2" stroke-linecap="round" stroke-linejoin="round" opacity="1" fill="none"></path><path d="M1205.09 521.86C1205.09 521.86 1222.12 505.08 1247.47 515.05 1257.18 518.83 1261.34 527.91 1261.34 546.83 1256.8 557.93 1245.83 565.75 1232.96 565.75 1219.34 565.75 1207.74 556.92 1203.83 544.56 1202.82 541.53 1202.31 538.25 1202.31 535.1 1202.06 530.31 1203.2 526.02 1205.09 521.86Z" fill="#ffffff" stroke="#333333" stroke-width="2" stroke-linecap="round" stroke-linejoin="round" opacity="1"></path><path d="M1216.82 529.51V535.31" stroke="#333333" stroke-width="2" stroke-linecap="round" stroke-linejoin="round" opacity="1" fill="none"></path><path d="M1225.14 535.23C1225.14 537.5 1223.25 539.39 1220.98 539.39 1218.71 539.39 1216.82 537.5 1216.82 535.23" stroke="#333333" stroke-width="2" stroke-linecap="round" stroke-linejoin="round" opacity="1" fill="none"></path><path d="M1232.84 504.45C1245.2 504.45 1255.54 511.64 1260.58 521.86 1262.48 525.89 1263.61 530.43 1263.61 535.1 1263.61 538.51 1263.11 541.53 1262.1 544.56 1261.84 545.32 1261.47 546.07 1261.34 546.83 1253.77 546.83 1247.72 540.78 1247.72 533.21V521.86H1205.09C1210.01 511.64 1220.6 504.45 1232.84 504.45Z" fill="#49476e" stroke="#333333" stroke-width="2" stroke-linecap="round" stroke-linejoin="round" opacity="1"></path><path d="M1209 521.86H1184.03" stroke="#333333" stroke-width="2" stroke-linecap="round" stroke-linejoin="round" opacity="1" fill="none"></path><path d="M1319.74 610.4V669.42C1319.74 700.83 1285.68 720.5 1258.44 704.61L1196.39 668.67 1219.47 622.88 1281.02 657.95" stroke="#333333" stroke-width="2" stroke-linecap="round" stroke-linejoin="round" opacity="1" fill="none"></path><path d="M1280.98 657.9C1274.04 653.73 1271.52 644.65 1275.68 637.72" stroke="#333333" stroke-width="2" stroke-linecap="round" stroke-linejoin="round" opacity="1" fill="none"></path><path d="M1243.43 961.91V763.39" stroke="#333333" stroke-width="2" stroke-linecap="round" stroke-linejoin="round" opacity="1" fill="none"></path><path d="M1272.19 546.45L1219.47 623.01" stroke="#333333" stroke-width="2" stroke-linecap="round" stroke-linejoin="round" opacity="1" fill="none"></path></g><g><path d="M143.45 735.61L207.33 723.78 271.32 735.61V974.54H143.45V735.61Z" fill="#49476e" stroke="#333333" stroke-width="2" stroke-linecap="round" stroke-linejoin="round" opacity="1"></path><path d="M325.88 626.17L357.44 612.29 376.63 655.56 271.32 707.19V735.61H143.45V716.95C129.02 716.95 117.2 705.24 117.2 690.7V631.49C117.2 599.71 143.01 573.89 174.79 573.89H235.86C254.62 573.89 269.69 589.08 269.69 607.73V650.9L316.01 630.51" fill="#ffffff" opacity="1" stroke-width="2" stroke="none"></path><path d="M325.88 626.17L357.44 612.29 376.63 655.56 271.32 707.19V735.61H143.45V716.95C129.02 716.95 117.2 705.24 117.2 690.7V631.49C117.2 599.71 143.01 573.89 174.79 573.89H235.86C254.62 573.89 269.69 589.08 269.69 607.73V650.9L316.01 630.51" stroke="#333333" stroke-width="2" stroke-linecap="round" stroke-linejoin="round" opacity="1" fill="none"></path><path d="M224.79 535.83C224.79 535.83 192.58 516.52 165.9 541.14 160.37 546.24 149.52 561.53 157.98 581.7 166.66 595.04 182.71 602.53 199.3 599.49 228.48 594.18 242.25 560.01 224.79 535.83Z" fill="#ffffff" stroke="#333333" stroke-width="2" stroke-linecap="round" stroke-linejoin="round" opacity="1"></path><path d="M211.99 552.96L214.27 565.87" stroke="#333333" stroke-width="2" stroke-linecap="round" stroke-linejoin="round" opacity="1" fill="none"></path><path d="M203.64 567.82C204.19 570.75 207 572.7 209.93 572.16 212.86 571.62 214.81 568.8 214.27 565.87" stroke="#333333" stroke-width="2" stroke-linecap="round" stroke-linejoin="round" opacity="1" fill="none"></path><path d="M184.55 519.77C156.25 524.98 142.04 557.41 157.87 581.7 167.63 579.97 174.03 570.64 172.19 560.88L169.48 546.02 224.68 535.93C215.9 523.57 200.5 516.85 184.55 519.77Z" fill="#49476e" stroke="#333333" stroke-width="2" stroke-linecap="round" stroke-linejoin="round" opacity="1"></path><path d="M308.09 602.96H235.1L226.74 654.8 247.68 646.34 264.16 694.07 223.82 710.23H290.84L308.09 602.96Z" fill="#3d84a8" stroke="#333333" stroke-width="2" stroke-linecap="round" stroke-linejoin="round" opacity="1"></path><path d="M143.45 716.95H206.9L223.82 710.23" stroke="#333333" stroke-width="2" stroke-linecap="round" stroke-linejoin="round" opacity="1" fill="none"></path><path d="M170.02 648.41C170.02 659.03 161.45 667.6 150.82 667.6H195.07L226.85 654.8" stroke="#333333" stroke-width="2" stroke-linecap="round" stroke-linejoin="round" opacity="1" fill="none"></path><path d="M230.11 791.35V778.34" stroke="#333333" stroke-width="2" stroke-linecap="round" stroke-linejoin="round" opacity="1" fill="none"></path><path d="M230.11 974.54V800.68" stroke="#333333" stroke-width="2" stroke-linecap="round" stroke-linejoin="round" opacity="1" fill="none"></path></g><g><path d="M1028.63 702.64H974.26V721.57H1028.63V702.64Z" fill="#78c7e0" stroke="#333333" stroke-width="2" stroke-linecap="round" stroke-linejoin="round" opacity="1"></path><path d="M1001.51 702.64V630.42C1001.51 623.7 996.14 618.33 989.43 618.33" stroke="#333333" stroke-width="2" stroke-linecap="round" stroke-linejoin="round" opacity="1" fill="none"></path><path d="M985.13 622.5C987.51 622.5 989.43 620.58 989.43 618.2 989.43 615.82 987.51 613.9 985.13 613.9 982.76 613.9 980.84 615.82 980.84 618.2 980.84 620.58 982.76 622.5 985.13 622.5Z" fill="#00a0d3" stroke="#333333" stroke-width="2" stroke-linecap="round" stroke-linejoin="round" opacity="1"></path><path d="M1070.78 721.57H871.16V976.37H1070.78V721.57Z" fill="#abedd8" stroke="#333333" stroke-width="2" stroke-linecap="round" stroke-linejoin="round" opacity="1"></path><path d="M853.3 721.57H1088.64" stroke="#333333" stroke-width="2" stroke-linecap="round" stroke-linejoin="round" opacity="1" fill="none"></path><path d="M1024.47 767.89H917.47V831.52H1024.47V767.89Z" fill="#78c7e0" stroke="#333333" stroke-width="2" stroke-linecap="round" stroke-linejoin="round" opacity="1"></path></g></svg>